<?xml version="1.0" encoding="UTF-8" standalone="no"?> <svg width="64" height="64" viewBox="0 0 64 64" fill="none" xmlns="http://www.w3.org/2000/svg">
<path d="M52.71 1.29189C52.6171 1.19816 52.5064 1.12377 52.3846 1.073C52.2627 1.02223 52.132 0.996094 52 0.996094C51.868 0.996094 51.7373 1.02223 51.6154 1.073C51.4936 1.12377 51.383 1.19816 51.29 1.29189L47 5.57189C46.9055 5.66451 46.8304 5.77495 46.7789 5.89683C46.7274 6.0187 46.7006 6.14959 46.7 6.28189C46.6992 6.41588 46.7254 6.54866 46.7769 6.67235C46.8285 6.79603 46.9043 6.9081 47 7.00189V7.00189L46.46 7.54189L44.05 8.27189C43.4684 8.39108 42.9336 8.67584 42.51 9.09189L41.83 9.77189L34.83 9.30189H34.65C34.1365 9.29681 33.6289 9.41276 33.1685 9.64035C32.7081 9.86794 32.3078 10.2008 32 10.6119C31.6973 10.2012 31.3027 9.86699 30.8478 9.63605C30.3929 9.40511 29.8902 9.28382 29.38 9.28189H29.16L22.16 9.75189L21.48 9.07189C21.0719 8.67317 20.5584 8.39912 20 8.28189L17.5 7.53189L17 7.00189C17.1884 6.81726 17.2963 6.56566 17.3 6.30189C17.2995 6.16959 17.2727 6.0387 17.2212 5.91683C17.1697 5.79495 17.0945 5.68451 17 5.59189L12.71 1.29189C12.6171 1.19816 12.5065 1.12377 12.3846 1.073C12.2627 1.02223 12.132 0.996094 12 0.996094C11.868 0.996094 11.7373 1.02223 11.6154 1.073C11.4936 1.12377 11.383 1.19816 11.29 1.29189L1.29002 11.2919C1.19734 11.3853 1.12401 11.4961 1.07425 11.618C1.02448 11.7398 0.999256 11.8703 1.00002 12.0019C1.0037 12.2667 1.10728 12.5203 1.29002 12.7119L5.58002 17.0019C5.67298 17.0956 5.78358 17.17 5.90544 17.2208C6.0273 17.2716 6.158 17.2977 6.29002 17.2977C6.42203 17.2977 6.55273 17.2716 6.67459 17.2208C6.79645 17.17 6.90705 17.0956 7.00002 17.0019L7.68002 16.3219L8.11002 16.7619V18.9319C8.11409 19.5894 8.24779 20.2396 8.50347 20.8453C8.75914 21.451 9.13177 22.0004 9.60002 22.4619L21.22 34.0019C21.33 34.1019 21.45 34.1919 21.57 34.2819C21.2159 34.222 20.8542 34.222 20.5 34.2819C20.0315 34.385 19.5926 34.5935 19.2166 34.8916C18.8406 35.1896 18.5374 35.5693 18.33 36.0019C18.0161 36.6421 17.9213 37.3678 18.0605 38.0671C18.1996 38.7665 18.5649 39.4006 19.1 39.8719L24.33 44.4419V45.3819C24.3191 45.9542 24.4755 46.5172 24.78 47.0019L26 49.2519V50.0019C25.7348 50.0019 25.4804 50.1072 25.2929 50.2948C25.1054 50.4823 25 50.7367 25 51.0019V62.0019C25 62.2671 25.1054 62.5215 25.2929 62.709C25.4804 62.8965 25.7348 63.0019 26 63.0019H40C40.2652 63.0019 40.5196 62.8965 40.7071 62.709C40.8947 62.5215 41 62.2671 41 62.0019V51.0019C41 50.7367 40.8947 50.4823 40.7071 50.2948C40.5196 50.1072 40.2652 50.0019 40 50.0019H39.06V49.4119L40.57 47.8719C41.4937 46.93 42.0077 45.6611 42 44.3419V34.5519C42.2855 34.4035 42.5482 34.2149 42.78 33.9919L54.38 22.4219C54.8483 21.9604 55.2209 21.411 55.4766 20.8053C55.7322 20.1996 55.8659 19.5494 55.87 18.8919V16.7219L56.3 16.2819L57 17.0019C57.1874 17.1881 57.4408 17.2927 57.705 17.2927C57.9692 17.2927 58.2227 17.1881 58.41 17.0019L62.7 12.7319C62.8911 12.5368 62.9988 12.275 63 12.0019C63.0008 11.8703 62.9755 11.7398 62.9258 11.618C62.876 11.4961 62.8027 11.3853 62.71 11.2919L52.71 1.29189ZM32 14.4319C32.26 14.7854 32.5908 15.0809 32.9713 15.2996C33.3518 15.5183 33.7736 15.6553 34.21 15.7019L35.74 15.8519L33 18.6219C32.6295 18.3034 32.1807 18.0894 31.7 18.0019C31.3007 17.9375 30.8926 17.9545 30.5 18.0519L28.25 15.8119L29.79 15.6619C30.2232 15.6201 30.6431 15.4893 31.0234 15.2776C31.4037 15.066 31.7362 14.7781 32 14.4319V14.4319ZM6.29002 14.8419L3.42002 12.0019L12 3.41189L14.87 6.28189L6.29002 14.8419ZM11 21.0019C10.7147 20.7249 10.4874 20.3939 10.3312 20.0283C10.1749 19.6626 10.093 19.2695 10.09 18.8719V16.2919C10.0889 16.0296 9.98476 15.7782 9.80002 15.5919L9.08002 14.8719L15.57 8.40189L16.3 9.12189C16.4143 9.23729 16.5551 9.3231 16.71 9.37189L19.54 10.2219C19.7376 10.2607 19.9188 10.3583 20.06 10.5019L21.06 11.5019C21.1616 11.6034 21.2838 11.6818 21.4184 11.7319C21.553 11.7819 21.6968 11.8024 21.84 11.7919L29.23 11.2919H29.38C29.6426 11.2958 29.8977 11.3805 30.1106 11.5343C30.3235 11.6882 30.4839 11.9038 30.57 12.1519C30.6238 12.3168 30.6419 12.4913 30.6229 12.6638C30.6039 12.8362 30.5484 13.0026 30.46 13.1519C30.3633 13.2991 30.2351 13.423 30.0846 13.5147C29.9341 13.6064 29.7652 13.6635 29.59 13.6819L26 14.0619C25.8098 14.0791 25.6286 14.1504 25.4776 14.2673C25.3267 14.3843 25.2124 14.542 25.1482 14.7218C25.0841 14.9017 25.0728 15.0961 25.1156 15.2822C25.1584 15.4683 25.2537 15.6382 25.39 15.7719L28.87 19.2419C28.4815 19.7477 28.2643 20.3642 28.25 21.0019V22.1619C27.7841 21.9884 27.2824 21.9334 26.79 22.0019C26.0854 22.1446 25.4532 22.5301 25.0037 23.0911C24.5541 23.6521 24.3157 24.3531 24.33 25.0719V32.3019C24.2649 32.4802 24.1505 32.6362 24 32.7519C23.7832 32.8793 23.5287 32.9271 23.2804 32.8869C23.0321 32.8467 22.8056 32.7212 22.64 32.5319L11 21.0019ZM24.33 34.8219V35.8919L23.16 34.8919C23.2798 34.9017 23.4002 34.9017 23.52 34.8919C23.7919 34.9046 24.0643 34.881 24.33 34.8219V34.8219ZM39 61.0019H27V52.0019H39V61.0019ZM40 44.3419C40.0036 44.736 39.9295 45.127 39.782 45.4925C39.6344 45.8579 39.4163 46.1908 39.14 46.4719L37.35 48.3019C37.1653 48.4882 37.0611 48.7396 37.06 49.0019V50.0019H28V49.0019C28.0018 48.8374 27.9604 48.6754 27.88 48.5319L26.49 46.0019C26.3861 45.8299 26.3308 45.6329 26.33 45.4319V44.0019C26.3298 43.8599 26.2994 43.7196 26.2408 43.5903C26.1822 43.461 26.0967 43.3456 25.99 43.2519L20.42 38.3719C20.2143 38.1924 20.0741 37.9495 20.0216 37.6816C19.9691 37.4136 20.0072 37.1358 20.13 36.8919C20.2061 36.7315 20.3176 36.5906 20.4562 36.4797C20.5948 36.3688 20.7569 36.2909 20.93 36.2519C21.1038 36.2091 21.2852 36.2086 21.4592 36.2503C21.6332 36.2921 21.7946 36.3749 21.93 36.4919L24.74 38.7719C24.8864 38.8915 25.0636 38.9672 25.2512 38.9902C25.4388 39.0133 25.6291 38.9826 25.8 38.9019C25.9702 38.8208 26.114 38.6934 26.2148 38.5341C26.3157 38.3749 26.3695 38.1904 26.37 38.0019V25.1119C26.3583 24.8663 26.43 24.624 26.5735 24.4243C26.7169 24.2246 26.9236 24.0793 27.16 24.0119C27.2959 23.9922 27.4344 24.0006 27.5669 24.0367C27.6994 24.0729 27.823 24.1359 27.93 24.2219C28.0442 24.317 28.1358 24.4363 28.198 24.5713C28.2603 24.7062 28.2917 24.8533 28.29 25.0019C28.29 25.2671 28.3954 25.5215 28.5829 25.709C28.7704 25.8965 29.0248 26.0019 29.29 26.0019C29.5552 26.0019 29.8096 25.8965 29.9971 25.709C30.1847 25.5215 30.29 25.2671 30.29 25.0019V21.0019C30.2871 20.8541 30.3169 20.7075 30.3775 20.5726C30.438 20.4377 30.5277 20.318 30.64 20.2219C30.7471 20.1359 30.8707 20.0729 31.0032 20.0367C31.1356 20.0006 31.2741 19.9922 31.41 20.0119C31.6474 20.0777 31.8552 20.2226 31.9989 20.4227C32.1425 20.6228 32.2135 20.8659 32.2 21.1119V24.0019C32.2 24.2671 32.3054 24.5215 32.4929 24.709C32.6804 24.8965 32.9348 25.0019 33.2 25.0019C33.4652 25.0019 33.7196 24.8965 33.9071 24.709C34.0947 24.5215 34.2 24.2671 34.2 24.0019C34.1983 23.8533 34.2297 23.7062 34.292 23.5713C34.3543 23.4363 34.4458 23.317 34.56 23.2219C34.6671 23.1359 34.7907 23.0729 34.9232 23.0367C35.0556 23.0006 35.1941 22.9922 35.33 23.0119C35.5665 23.0793 35.7732 23.2246 35.9166 23.4243C36.06 23.624 36.1317 23.8663 36.12 24.1119V28.0019C36.12 28.2671 36.2254 28.5215 36.4129 28.709C36.6004 28.8965 36.8548 29.0019 37.12 29.0019C37.3852 29.0019 37.6396 28.8965 37.8271 28.709C38.0147 28.5215 38.12 28.2671 38.12 28.0019C38.1183 27.8533 38.1497 27.7062 38.212 27.5713C38.2743 27.4363 38.3658 27.317 38.48 27.2219C38.5871 27.1359 38.7107 27.0729 38.8432 27.0367C38.9756 27.0006 39.1141 26.9922 39.25 27.0119C39.4865 27.0793 39.6932 27.2246 39.8366 27.4243C39.98 27.624 40.0517 27.8663 40.04 28.1119L40 44.3419ZM54.19 15.5919C54.0053 15.7782 53.9011 16.0296 53.9 16.2919V18.8719C53.8984 19.2688 53.818 19.6615 53.6635 20.0271C53.509 20.3927 53.2835 20.724 53 21.0019L42 31.9419V28.1119C42.0234 27.3849 41.788 26.6733 41.3356 26.1037C40.8833 25.5341 40.2434 25.1437 39.53 25.0019C39.0442 24.9223 38.5462 24.9635 38.08 25.1219V24.1119C38.1039 23.3863 37.8698 22.6758 37.4195 22.1064C36.9691 21.5371 36.3316 21.1457 35.62 21.0019C35.1309 20.9206 34.6293 20.9619 34.16 21.1219V21.0719C34.1576 20.8122 34.124 20.5536 34.06 20.3019L38.66 15.7319C38.7964 15.5982 38.8916 15.4283 38.9344 15.2422C38.9773 15.0561 38.966 14.8617 38.9018 14.6818C38.8376 14.502 38.7233 14.3443 38.5724 14.2273C38.4215 14.1104 38.2402 14.0391 38.05 14.0219L34.41 13.6719C34.2348 13.6535 34.0659 13.5964 33.9154 13.5047C33.765 13.413 33.6368 13.2891 33.54 13.1419C33.4512 12.9929 33.3946 12.8269 33.3739 12.6546C33.3532 12.4824 33.3689 12.3077 33.42 12.1419C33.5045 11.8958 33.6615 11.681 33.8703 11.5257C34.0791 11.3705 34.33 11.282 34.59 11.2719H34.7L42.16 11.7719C42.3032 11.7824 42.447 11.7619 42.5816 11.7119C42.7162 11.6618 42.8384 11.5834 42.94 11.4819L43.94 10.4819C44.1077 10.3217 44.3207 10.2169 44.55 10.1819L47.29 9.35189C47.445 9.3031 47.5857 9.21729 47.7 9.10189L48.43 8.38189L54.91 14.8519L54.19 15.5919ZM57.71 14.8419L49.13 6.28189L52 3.41189L60.58 12.0019L57.71 14.8419Z" fill="black"/>
</svg>
