<svg xmlns="http://www.w3.org/2000/svg" xmlns:xlink="http://www.w3.org/1999/xlink" viewBox="0 0 64 64"><defs><style>.cls-1{fill:url(#linear-gradient);}</style><linearGradient id="linear-gradient" x1="3.25" y1="32" x2="60.75" y2="32" gradientUnits="userSpaceOnUse"><stop offset="0" stop-color="#ffffff" id="id_106"></stop><stop offset="0.61" stop-color="#ffffff" id="id_107"></stop><stop offset="1" stop-color="#ffffff" id="id_108"></stop></linearGradient></defs><g id="Layer_63" data-name="Layer 63"><path class="cls-1" d="M32,3.25h0A28.75,28.75,0,0,0,3.25,32h0A28.75,28.75,0,0,0,32,60.75h0A28.75,28.75,0,0,0,60.75,32h0A28.75,28.75,0,0,0,32,3.25Zm-3.19,33.9L23.2,42.48a3.13,3.13,0,0,1-.1,6.25H15.36a3.16,3.16,0,0,1-3.11-3.16V37.89a3.13,3.13,0,1,1,6.25,0v.43l6-5.7a3.12,3.12,0,0,1,4.3,4.53ZM32,28a3.12,3.12,0,0,1-3.12-3.12V19.92l-.13.12a3.13,3.13,0,0,1-4.42-4.42l5.46-5.45a3.13,3.13,0,0,1,4.42,0l5.46,5.45A3.13,3.13,0,0,1,35.25,20l-.13-.12v4.91A3.12,3.12,0,0,1,32,28ZM51.75,45.6a3.15,3.15,0,0,1-3.11,3.13H40.9a3.13,3.13,0,0,1-.1-6.25l-5.61-5.33a3.12,3.12,0,0,1,4.3-4.53l6,5.7v-.43a3.13,3.13,0,1,1,6.25,0Z" id="id_105"></path></g></svg>