<svg id="Layer_1" data-name="Layer 1" xmlns="http://www.w3.org/2000/svg" xmlns:xlink="http://www.w3.org/1999/xlink" viewBox="0 0 64 64"><defs><style>.cls-1{fill:url(#linear-gradient);}</style><linearGradient id="linear-gradient" x1="6.54" y1="16.11" x2="55.93" y2="44.63" gradientUnits="userSpaceOnUse"><stop offset="0" stop-color="#ffffff" id="id_108"></stop><stop offset="0.15" stop-color="#ffffff" id="id_109"></stop><stop offset="0.43" stop-color="#ffffff" id="id_110"></stop><stop offset="0.81" stop-color="#ffffff" id="id_111"></stop><stop offset="1" stop-color="#ffffff" id="id_112"></stop></linearGradient></defs><title>setting idea</title><path class="cls-1" d="M41,54.07H23.39V51H41Zm-17.4,2a8.82,8.82,0,0,0,17.24,0ZM38.65,31.4h1.47V32.6H38.65a1,1,0,0,0-1,.76,5.94,5.94,0,0,1-.7,1.7,1,1,0,0,0,.15,1.23l1,1-.84.84-1-1A1,1,0,0,0,35.06,37a5.94,5.94,0,0,1-1.7.7,1,1,0,0,0-.76,1v1.47H31.4V38.65a1,1,0,0,0-.76-1,5.94,5.94,0,0,1-1.7-.7,1,1,0,0,0-1.23.15l-1,1-.84-.84,1-1A1,1,0,0,0,27,35.06a5.94,5.94,0,0,1-.7-1.7,1,1,0,0,0-1-.76H23.88V31.4h1.47a1,1,0,0,0,1-.76,5.94,5.94,0,0,1,.7-1.7,1,1,0,0,0-.15-1.23l-1-1,.84-.84,1,1a1,1,0,0,0,1.23.15,5.94,5.94,0,0,1,1.7-.7,1,1,0,0,0,.76-1V23.88H32.6v1.47a1,1,0,0,0,.76,1,5.94,5.94,0,0,1,1.7.7,1,1,0,0,0,1.23-.15l1-1,.84.84-1,1A1,1,0,0,0,37,28.94a5.94,5.94,0,0,1,.7,1.7A1,1,0,0,0,38.65,31.4Zm-2.9.6A3.75,3.75,0,1,0,32,35.75,3.75,3.75,0,0,0,35.75,32ZM47,35.32,41.44,49H22.88L17.17,35.62A16.14,16.14,0,1,1,47,35.32ZM42.13,30.4a1,1,0,0,0-1-1H39.4a8.08,8.08,0,0,0-.33-.8l1.22-1.22a1,1,0,0,0,0-1.41L38,23.71a1,1,0,0,0-1.41,0L35.4,24.93a8.08,8.08,0,0,0-.8-.33V22.88a1,1,0,0,0-1-1H30.4a1,1,0,0,0-1,1V24.6a8.08,8.08,0,0,0-.8.33l-1.22-1.22a1,1,0,0,0-1.41,0L23.71,26a1,1,0,0,0,0,1.41l1.22,1.22a8.08,8.08,0,0,0-.33.8H22.88a1,1,0,0,0-1,1V33.6a1,1,0,0,0,1,1H24.6a8.08,8.08,0,0,0,.33.8l-1.22,1.22a1,1,0,0,0,0,1.41L26,40.29a1,1,0,0,0,1.41,0l1.22-1.22a8.08,8.08,0,0,0,.8.33v1.73a1,1,0,0,0,1,1H33.6a1,1,0,0,0,1-1V39.4a8.08,8.08,0,0,0,.8-.33l1.22,1.22a1,1,0,0,0,1.41,0L40.29,38a1,1,0,0,0,0-1.41L39.07,35.4a8.08,8.08,0,0,0,.33-.8h1.73a1,1,0,0,0,1-1ZM32,30.25A1.75,1.75,0,1,0,33.75,32,1.75,1.75,0,0,0,32,30.25ZM32,1a1,1,0,0,0-1,1V8.33a1,1,0,1,0,2,0V2A1,1,0,0,0,32,1Zm20.53,9.09-4.48,4.48A1,1,0,1,0,49.47,16l4.48-4.48a1,1,0,0,0-1.41-1.41Zm-41.07,0a1,1,0,0,0-1.41,1.41L14.53,16a1,1,0,0,0,1.41-1.41ZM8.29,31H2a1,1,0,1,0,0,2H8.29a1,1,0,0,0,0-2ZM62,31H55.71a1,1,0,0,0,0,2H62a1,1,0,1,0,0-2Z" id="id_107"></path></svg>