<svg height="512" viewBox="0 0 64 64" width="512" xmlns="http://www.w3.org/2000/svg" xmlns:xlink="http://www.w3.org/1999/xlink"><linearGradient id="New_Gradient_Swatch_copy_2" gradientUnits="userSpaceOnUse" x1="25" x2="25" y1="63.116" y2="-3.013"><stop offset="0" stop-color="#ffffff" id="id_149"></stop><stop offset="1" stop-color="#ffffff" id="id_150"></stop></linearGradient><linearGradient id="New_Gradient_Swatch_copy_2-2" x1="21" x2="21" xlink:href="#New_Gradient_Swatch_copy_2" y1="63.116" y2="-3.013"></linearGradient><linearGradient id="New_Gradient_Swatch_copy_2-4" x1="26" x2="26" xlink:href="#New_Gradient_Swatch_copy_2" y1="63.116" y2="-3.013"></linearGradient><linearGradient id="New_Gradient_Swatch_copy_2-5" x1="32" x2="32" xlink:href="#New_Gradient_Swatch_copy_2" y1="63.116" y2="-3.013"></linearGradient><linearGradient id="New_Gradient_Swatch_copy_2-6" x1="55" x2="55" xlink:href="#New_Gradient_Swatch_copy_2" y1="63.116" y2="-3.013"></linearGradient><linearGradient id="New_Gradient_Swatch_copy_2-7" x1="43" x2="43" xlink:href="#New_Gradient_Swatch_copy_2" y1="63.116" y2="-3.013"></linearGradient><linearGradient id="New_Gradient_Swatch_copy_2-8" x1="52" x2="52" xlink:href="#New_Gradient_Swatch_copy_2" y1="63.116" y2="-3.013"></linearGradient><linearGradient id="New_Gradient_Swatch_copy_2-10" x1="38" x2="38" xlink:href="#New_Gradient_Swatch_copy_2" y1="63.116" y2="-3.013"></linearGradient><linearGradient id="New_Gradient_Swatch_copy_2-11" x1="45" x2="45" xlink:href="#New_Gradient_Swatch_copy_2" y1="63.116" y2="-3.013"></linearGradient><linearGradient id="New_Gradient_Swatch_copy_2-12" x1="9" x2="9" xlink:href="#New_Gradient_Swatch_copy_2" y1="63.116" y2="-3.013"></linearGradient><linearGradient id="New_Gradient_Swatch_copy_2-15" x1="39" x2="39" xlink:href="#New_Gradient_Swatch_copy_2" y1="63.116" y2="-3.013"></linearGradient><linearGradient id="New_Gradient_Swatch_copy_2-16" x1="14" x2="14" xlink:href="#New_Gradient_Swatch_copy_2" y1="63.116" y2="-3.013"></linearGradient><linearGradient id="New_Gradient_Swatch_copy_2-17" x1="50" x2="50" xlink:href="#New_Gradient_Swatch_copy_2" y1="63.116" y2="-3.013"></linearGradient><linearGradient id="New_Gradient_Swatch_copy_2-18" x1="12" x2="12" xlink:href="#New_Gradient_Swatch_copy_2" y1="63.116" y2="-3.013"></linearGradient><linearGradient id="New_Gradient_Swatch_copy_2-19" x1="19" x2="19" xlink:href="#New_Gradient_Swatch_copy_2" y1="63.116" y2="-3.013"></linearGradient><g id="Robot-Robotics-Artificial_Intelligence-Mar-Wheel" data-name="Robot-Robotics-Artificial Intelligence-Mar-Wheel"><path d="m25 16a6 6 0 1 0 -6-6 6 6 0 0 0 6 6zm0-10a4 4 0 1 1 -4 4 4 4 0 0 1 4-4z" fill="url(#New_Gradient_Swatch_copy_2)" id="id_126"></path><path d="m20 50h2v6h-2z" fill="url(#New_Gradient_Swatch_copy_2-2)" id="id_127"></path><circle cx="25" cy="10" fill="url(#New_Gradient_Swatch_copy_2)" r="2" id="id_128"></circle><path d="m24 52h4v2h-4z" fill="url(#New_Gradient_Swatch_copy_2-4)" id="id_129"></path><path d="m28.78 48-.5 2h7.44l-.5-2z" fill="url(#New_Gradient_Swatch_copy_2-5)" id="id_130"></path><path d="m54 22h2v2h-2z" fill="url(#New_Gradient_Swatch_copy_2-6)" id="id_131"></path><path d="m42 50h2v6h-2z" fill="url(#New_Gradient_Swatch_copy_2-7)" id="id_132"></path><path d="m48 26h8v2h-8z" fill="url(#New_Gradient_Swatch_copy_2-8)" id="id_133"></path><path d="m42 24h-4.22l-.81 3.24a1 1 0 0 1 -.97.76h-8a1 1 0 0 1 -.97-.76l-.81-3.24h-4.22v16.59l1.41 1.41a1.983 1.983 0 0 1 .59 1.41v6.59h2.22l.62-2.49a1.992 1.992 0 0 1 1.94-1.51h6.44a1.992 1.992 0 0 1 1.94 1.51l.62 2.49h2.22v-6.59a1.983 1.983 0 0 1 .59-1.41l1.41-1.41zm-11 6h2v7h-2zm1 14a7 7 0 0 1 -3.5-13.062l1 1.731a5 5 0 1 0 5 0l1-1.731a7 7 0 0 1 -3.5 13.062z" fill="url(#New_Gradient_Swatch_copy_2-5)" id="id_134"></path><path d="m36 52h4v2h-4z" fill="url(#New_Gradient_Swatch_copy_2-10)" id="id_135"></path><path d="m44 24h2v6h-2z" fill="url(#New_Gradient_Swatch_copy_2-11)" id="id_136"></path><path d="m8 22h2v2h-2z" fill="url(#New_Gradient_Swatch_copy_2-12)" id="id_137"></path><path d="m13 15v5h-8v-5a3.009 3.009 0 0 1 3-3v2a1 1 0 0 0 -1 1v3h4v-3a1 1 0 0 0 -1-1v-2a3.009 3.009 0 0 1 3 3z" fill="url(#New_Gradient_Swatch_copy_2-12)" id="id_138"></path><path d="m28.27 17.3.35.7h6.76l.35-.7a8.08 8.08 0 0 1 -3.73-3.44 8.08 8.08 0 0 1 -3.73 3.44z" fill="url(#New_Gradient_Swatch_copy_2-5)" id="id_139"></path><circle cx="39" cy="10" fill="url(#New_Gradient_Swatch_copy_2-15)" r="2" id="id_140"></circle><path d="m17 46h-6a1 1 0 0 0 -1 1v.18l3.25.85-.5 1.94-2.75-.72v1.93l3.25.85-.5 1.94-2.75-.72v1.93l3.25.85-.5 1.94-2.75-.72v1.75a1 1 0 0 0 1 1h6a1 1 0 0 0 1-1v-1.75l-2.75.72-.5-1.94 3.25-.85v-1.93l-2.75.72-.5-1.94 3.25-.85v-1.93l-2.75.72-.5-1.94 3.25-.85v-.18a1 1 0 0 0 -1-1z" fill="url(#New_Gradient_Swatch_copy_2-16)" id="id_141"></path><path d="m53 46h-6a1 1 0 0 0 -1 1v.18l3.25.85-.5 1.94-2.75-.72v1.93l3.25.85-.5 1.94-2.75-.72v1.93l3.25.85-.5 1.94-2.75-.72v1.75a1 1 0 0 0 1 1h6a1 1 0 0 0 1-1v-1.75l-2.75.72-.5-1.94 3.25-.85v-1.93l-2.75.72-.5-1.94 3.25-.85v-1.93l-2.75.72-.5-1.94 3.25-.85v-.18a1 1 0 0 0 -1-1z" fill="url(#New_Gradient_Swatch_copy_2-17)" id="id_142"></path><path d="m8 26h8v2h-8z" fill="url(#New_Gradient_Swatch_copy_2-18)" id="id_143"></path><path d="m18 24h2v6h-2z" fill="url(#New_Gradient_Swatch_copy_2-19)" id="id_144"></path><path d="m39 16a6 6 0 1 0 -6-6 6 6 0 0 0 6 6zm0-10a4 4 0 1 1 -4 4 4 4 0 0 1 4-4z" fill="url(#New_Gradient_Swatch_copy_2-15)" id="id_145"></path><path d="m31 20h2v2h-2z" fill="url(#New_Gradient_Swatch_copy_2-5)" id="id_146"></path><path d="m28.78 26h6.44l.5-2h-7.44z" fill="url(#New_Gradient_Swatch_copy_2-5)" id="id_147"></path><path d="m59 15v5h-8v-5a3.009 3.009 0 0 1 3-3v2a1 1 0 0 0 -1 1v3h4v-3a1 1 0 0 0 -1-1v-2a3.009 3.009 0 0 1 3 3z" fill="url(#New_Gradient_Swatch_copy_2-6)" id="id_148"></path></g></svg>