<svg id="Gradient_ok" data-name="Gradient ok" xmlns="http://www.w3.org/2000/svg" xmlns:xlink="http://www.w3.org/1999/xlink" viewBox="0 0 64 64"><defs><linearGradient id="New_Gradient_Swatch_copy" x1="4.558" y1="66.431" x2="66.048" y2="4.941" gradientUnits="userSpaceOnUse"><stop offset="0" stop-color="#ffffff" id="id_123"></stop><stop offset="1" stop-color="#ffffff" id="id_124"></stop></linearGradient><linearGradient id="New_Gradient_Swatch_copy-2" x1="-4.186" y1="57.686" x2="57.304" y2="-3.804" xlink:href="#New_Gradient_Swatch_copy"></linearGradient><linearGradient id="New_Gradient_Swatch_copy-3" x1="13.314" y1="75.186" x2="74.804" y2="13.696" xlink:href="#New_Gradient_Swatch_copy"></linearGradient><linearGradient id="New_Gradient_Swatch_copy-4" x1="4.625" y1="66.498" x2="66.115" y2="5.008" xlink:href="#New_Gradient_Swatch_copy"></linearGradient><linearGradient id="New_Gradient_Swatch_copy-5" x1="5.814" y1="67.686" x2="67.304" y2="6.196" xlink:href="#New_Gradient_Swatch_copy"></linearGradient><linearGradient id="New_Gradient_Swatch_copy-6" x1="4.564" y1="66.436" x2="66.054" y2="4.946" xlink:href="#New_Gradient_Swatch_copy"></linearGradient><linearGradient id="New_Gradient_Swatch_copy-7" x1="-8.091" y1="53.781" x2="53.399" y2="-7.709" xlink:href="#New_Gradient_Swatch_copy"></linearGradient><linearGradient id="New_Gradient_Swatch_copy-8" x1="-11.436" y1="50.436" x2="50.054" y2="-11.054" xlink:href="#New_Gradient_Swatch_copy"></linearGradient><linearGradient id="New_Gradient_Swatch_copy-9" x1="-5.186" y1="56.686" x2="56.304" y2="-4.804" xlink:href="#New_Gradient_Swatch_copy"></linearGradient><linearGradient id="New_Gradient_Swatch_copy-10" x1="1.607" y1="63.48" x2="63.097" y2="1.99" xlink:href="#New_Gradient_Swatch_copy"></linearGradient></defs><path d="M32,63A24,24,0,0,1,20.71,17.827a1,1,0,0,1,.939,1.766,22,22,0,1,0,20.7,0,1,1,0,1,1,.939-1.766A24,24,0,0,1,32,63Z" style="fill:url(#New_Gradient_Swatch_copy)" id="id_113"></path><path d="M32,28a23.958,23.958,0,0,1-15.561-5.74,1,1,0,0,1,1.3-1.52,21.96,21.96,0,0,0,28.52,0,1,1,0,0,1,1.3,1.52A23.958,23.958,0,0,1,32,28Z" style="fill:url(#New_Gradient_Swatch_copy-2)" id="id_114"></path><path d="M46.91,57.5a1,1,0,0,1-.65-.24,21.96,21.96,0,0,0-28.52,0,1,1,0,0,1-1.3-1.52,23.963,23.963,0,0,1,31.122,0,1,1,0,0,1-.651,1.76Z" style="fill:url(#New_Gradient_Swatch_copy-3)" id="id_115"></path><path d="M32,63c-7.29,0-13-10.542-13-24,0-7.717,1.992-14.991,5.329-19.459a1,1,0,0,1,1.6,1.2C22.844,24.872,21,31.7,21,39c0,11.925,5.037,22,11,22S43,50.925,43,39c0-7.3-1.844-14.128-4.931-18.261a1,1,0,1,1,1.6-1.2C43.008,24.009,45,31.283,45,39,45,52.458,39.29,63,32,63Z" style="fill:url(#New_Gradient_Swatch_copy-4)" id="id_116"></path><path d="M32,63a1,1,0,0,1-1-1V21a1,1,0,0,1,2,0V62A1,1,0,0,1,32,63Z" style="fill:url(#New_Gradient_Swatch_copy-5)" id="id_117"></path><path d="M55,40H9a1,1,0,0,1,0-2H55a1,1,0,0,1,0,2Z" style="fill:url(#New_Gradient_Swatch_copy-6)" id="id_118"></path><path d="M32,22a26.111,26.111,0,0,1-11.447-2.485A1,1,0,0,1,20,18.62V8.76a1,1,0,1,1,2,0v9.23A24.5,24.5,0,0,0,32,20a24.5,24.5,0,0,0,10-2.01V8.76a1,1,0,1,1,2,0v9.86a1,1,0,0,1-.553.895A26.111,26.111,0,0,1,32,22Z" style="fill:url(#New_Gradient_Swatch_copy-7)" id="id_119"></path><path d="M32,13a1,1,0,0,1-.282-.041l-17-5a1,1,0,0,1,0-1.919l17-5a1.02,1.02,0,0,1,.564,0l17,5a1,1,0,0,1,0,1.919l-17,5A1,1,0,0,1,32,13ZM18.544,7,32,10.957,45.456,7,32,3.042Z" style="fill:url(#New_Gradient_Swatch_copy-8)" id="id_120"></path><path d="M49,14a1,1,0,0,1-1-1V8H34a1,1,0,0,1,0-2H49a1,1,0,0,1,1,1v6A1,1,0,0,1,49,14Z" style="fill:url(#New_Gradient_Swatch_copy-9)" id="id_121"></path><path d="M51,19H47a1,1,0,0,1-1-1V15a3,3,0,0,1,6,0v3A1,1,0,0,1,51,19Zm-3-2h2V15a1,1,0,0,0-2,0Z" style="fill:url(#New_Gradient_Swatch_copy-10)" id="id_122"></path></svg>