<svg xmlns="http://www.w3.org/2000/svg" xmlns:xlink="http://www.w3.org/1999/xlink" viewBox="0 0 64 64"><defs><style>.cls-1{fill:url(#linear-gradient);}.cls-2{fill:url(#linear-gradient-2);}</style><linearGradient id="linear-gradient" x1="23.17" y1="29.81" x2="29.36" y2="29.81" gradientUnits="userSpaceOnUse"><stop offset="0" stop-color="#ffffff" id="id_108"></stop><stop offset="0.61" stop-color="#ffffff" id="id_109"></stop><stop offset="1" stop-color="#ffffff" id="id_110"></stop></linearGradient><linearGradient id="linear-gradient-2" x1="3.4" y1="32" x2="60.6" y2="32" xlink:href="#linear-gradient"></linearGradient></defs><g id="Layer_43" data-name="Layer 43"><path class="cls-1" d="M23.77,35.68a.57.57,0,0,0,.42-.17l5-5a.63.63,0,0,0,.17-.43V24.54a.6.6,0,0,0-1.2,0v5.3l-4.81,4.82a.59.59,0,0,0,0,.85A.57.57,0,0,0,23.77,35.68Z" id="id_106"></path><path class="cls-2" d="M32,3.4h0A28.59,28.59,0,0,0,3.4,32h0A28.59,28.59,0,0,0,32,60.6h0A28.59,28.59,0,0,0,60.6,32h0A28.59,28.59,0,0,0,32,3.4ZM17.37,29.49H14.24a14.51,14.51,0,0,1,3.83-9.24l2.21,2.21a.59.59,0,0,0,.85,0,.59.59,0,0,0,0-.85L18.92,19.4a14.46,14.46,0,0,1,9.24-3.83V18.7a.6.6,0,1,0,1.2,0V15.57A14.44,14.44,0,0,1,38.6,19.4l-2.21,2.21a.61.61,0,0,0,0,.85.59.59,0,0,0,.85,0l2.21-2.21a14.45,14.45,0,0,1,3.84,9.24H40.15a.6.6,0,1,0,0,1.2h3.13a12.67,12.67,0,0,1-.16,1.63,5.21,5.21,0,0,0-2.54-.68,5.29,5.29,0,0,0-2.77,9.8,9.8,9.8,0,0,0-4,2.29,14.27,14.27,0,0,1-4.47.89V41.48a.6.6,0,0,0-1.2,0v3.14a14.47,14.47,0,0,1-9.24-3.84l2.21-2.21a.59.59,0,0,0,0-.85.61.61,0,0,0-.85,0l-2.21,2.21a14.49,14.49,0,0,1-3.83-9.24h3.13a.6.6,0,1,0,0-1.2ZM40.6,41h0a4.1,4.1,0,1,1,4.12-4.1A4.1,4.1,0,0,1,40.56,41Zm0,1.2h0a8.57,8.57,0,0,1,8.25,6.26,11.34,11.34,0,0,1-16.54,0A8.57,8.57,0,0,1,40.56,42.24ZM28.17,10.31a.55.55,0,0,1,.14-.31l0,0,2.88-2.89a.61.61,0,0,1,.85,0,.59.59,0,0,1,0,.85L30.16,9.84a20.33,20.33,0,0,1,18.9,20.25.6.6,0,0,1-1.2,0,19.12,19.12,0,0,0-17.59-19l1.8,1.81a.58.58,0,0,1,0,.84.59.59,0,0,1-.85,0l-2.88-2.88h0a.6.6,0,0,1-.17-.37A.62.62,0,0,1,28.17,10.31Zm.92,40L26.28,53.1a.58.58,0,0,1-.42.18.6.6,0,0,1-.43-.18.61.61,0,0,1,0-.85l1.91-1.91A20.32,20.32,0,0,1,8.46,30.09a.6.6,0,0,1,.6-.6.6.6,0,0,1,.6.6,19.13,19.13,0,0,0,17.58,19l-1.81-1.8a.61.61,0,0,1,0-.85.6.6,0,0,1,.85,0h0l2.9,2.88A.61.61,0,0,1,29.09,50.29Z" id="id_107"></path></g></svg>